<?xml version="1.0" encoding="utf-8"?>
<!-- Generator: Adobe Illustrator 25.0.0, SVG Export Plug-In . SVG Version: 6.00 Build 0)  -->
<svg version="1.1" id="Layer_1" xmlns="http://www.w3.org/2000/svg" xmlns:xlink="http://www.w3.org/1999/xlink" x="0px" y="0px"
	 viewBox="0 0 771 724" style="enable-background:new 0 0 771 724;" xml:space="preserve">
<style type="text/css">
	.st0{fill:none;stroke:#000000;stroke-width:4;stroke-miterlimit:10;}
</style>
<path class="st0" d="M385.5,445.84c0,0-42.32-8.03-65.89-46.72c-24.79-40.69-29.6-113.62,25.94-176.83
	c78.25-61.5,151.31-28.27,169.63-17.28c27.28,13.88,70.33,41.89,67.83,96.09c-0.82,3.99-4.46,7.8-8.5,9
	c-23.8,13.2-10.1,20.7-6.1,21.8c6.8-0.9,4.5-20.6,1.9-21.7c-2.6-1.1-11.7-6.87-19.8,3.43c-6.3,7.36,1.5,31.27,4.2,41.07
	c0,0,14.45,42.97,10.1,48.74c-6.3,10.06-5.7-19.14-7.3-28.34c-1.6-9.2-14.6-30.4-15.6-35.2c-1.89-9.6,4.2-24.3,0.3-31.9
	c-11-15.7-22.6,4.5-22.4,14.3c-1.2,18.4,7.7,105.8,41.75,104.45c10.45-1.95,20.53-22.1,19.85-26.35c15.7,7.2,22.5-1.7,24.7-11.3
	c2.2-9.6,3.85-59.44-13.1-64.05c-3.75-0.15-10.8-5.4-12.45,11.55c0.27,21.89,3.15,59.25,10.35,58.65c0,0,2.84-1.8,3.45-5.25
	c1.95-15.34,7.2-63.45-10.05-67.7c-10.47-4.59-14.25-32.54-19.2-42.55c-1.13-4.11-19.9-44.35-55.9-58.35
	c-41.2-20.8-92.3-9.45-103.55-3c-24.15,10.95-45.85,24.92-64.8,55.38c-16.9,27.15-18.16,65-14.85,82.02c15.8,77,76.4,78.6,81.8,79.2
	s34.6,1.95,43.15,7.5c8.55,5.55,18.32,16.4,22.5,17.4c3.35,0.8,5.54-1.48,10.8-3.45c5.04-1.88,11.06-3.29,12.75-2.7
	c14.8,3.85,19.2-7.55,19.2-11.15s3.1-15.2-19.6-29.6c-2.65-1.77-26.4-21.8-59.1-27.8c-20.18-4.28-29.36,8.33-32.5,11.8
	c-6.7,7.4,0.6,27.2-0.4,29.4c-1,2.2-14.4-7.7-6-24.1c3.83-5.68,20.73,0.06,23.6,2.7c2.87,2.64,99.07,34.35,75.7,53.4
	c-7.65,10.2-27,6.3-31.65,4.35c-2.32-0.97-15.77-7.35-28.95-13.35c-13.29-6.05-26.32-11.72-28.65-7.95
	c-8.55,9.15,15.45,26.1,21.15,29.7c5.7,3.6,26.1,13.2,27.45,10.8c9.45-4.95-9.51-21.63-17.25-25c-16.22-8.03-26.2-8.6-29.13-3.94
	c0,0-4.47,9.63,4.83,17.28c18.15,17.07,42.15,16.48,44.67,14.37c7.38-1.65,20.88-6.15,21.78-7.95c0.9-1.8,11.55-0.15,13.05,8.1
	c3.74,11.67,1.9,28.19,7.95,42.45c5.31,12.52,15.57,15.97,17.25,15.9c11.83,5.1,42.9-15.6,12.6-28.8
	c-5.87-0.97-18.45-1.2-10.8,34.65c0.76,2.44,6.33,20.91,17.85,38.55c28.5,29.7,41.05,56.35,26.45,72.95
	c-11.99,14.11-42.51,7.41-69.8-6.2c-21.65-10.8-41.05-26.8-49.05-34.13c-17.25-11.77-42.18-46.19-74.55-62.88
	c-20.37-10.5-48.21-6.02-50.1-5.6c-3.41,0.77-47.26,10.32-76.57,13.72c-12.79,1.48-23.47-1.04-25.73-1.22
	c-15.36-3.53-44.14-15.67-69.07-52.89c-35.63-50.51-41.33-107.54-41.18-109.46c0.15-1.83-3.73-53.8,8.25-99.75
	c4.92-18.88,11.14-40.01,18.6-54.45c10.14-19.63,21.25-29.73,22.3-31.25c28-28.8,77.45-45.1,119.2-88.2
	c25.76-28.35,29.64-70.12,29-77c0.4-20.69-21.1-49.4-22.5-51.2"/>
</svg>
